<svg xmlns="http://www.w3.org/2000/svg" viewBox="0 0 68.75 40.48"><title>ojo cerrado</title><g id="Capa_2" data-name="Capa 2"><g id="OJO"><path d="M68.31,21.67a1.5,1.5,0,0,0,0-2.12L61,12.23A37.68,37.68,0,0,0,19.05,4.45l2.86,2.06a34.68,34.68,0,0,1,37,7.84l6.26,6.26-6.26,6.26a35.11,35.11,0,0,1-4,3.43l2.54,1.83A38.2,38.2,0,0,0,61,29Z" style="fill:#2464b5"/><path d="M34.37,37A34.42,34.42,0,0,1,9.88,26.87L3.62,20.61l6.26-6.26a34.71,34.71,0,0,1,8.86-6.43L16,6a37.8,37.8,0,0,0-8.27,6.26L.44,19.55a1.5,1.5,0,0,0,0,2.12L7.76,29a37.65,37.65,0,0,0,47.08,5l-2.62-1.89A34.43,34.43,0,0,1,34.37,37Z" style="fill:#2464b5"/><path d="M30.64,22.24a5.34,5.34,0,0,1-4.16-8.73l-1.42-1A12.36,12.36,0,1,0,45,26.89l-9.88-7.12A5.36,5.36,0,0,1,30.64,22.24Z" style="fill:#2464b5"/><path d="M30.64,11.5A5.36,5.36,0,0,1,36,16.67l10.26,7.4A12.37,12.37,0,0,0,27.34,10.43l1.8,1.3A5.31,5.31,0,0,1,30.64,11.5Z" style="fill:#2464b5"/><path d="M11.2,2.4,8.27.28A1.5,1.5,0,0,0,6.52,2.72l52,37.48a1.5,1.5,0,0,0,2.07-2.11l-49-35.37A1.48,1.48,0,0,1,11.2,2.4Z" style="fill:#2464b5"/><path d="M60.23,37.77,11.2,2.4a1.48,1.48,0,0,0,.32.32l49,35.37A1.48,1.48,0,0,0,60.23,37.77Z" style="fill:#2464b5"/></g></g></svg>